<svg width="70" height="70" viewBox="0 0 70 70" fill="none" xmlns="http://www.w3.org/2000/svg">
<path d="M54.7969 29.0938C53.9219 19.25 45.9375 11.4844 36.0938 10.9375C24.6094 10.3907 15.2031 19.4688 15.2031 30.7344C15.2031 36.2032 17.3906 41.3438 21.3281 45.0625C24.7188 48.2344 26.7969 52.9375 27.125 57.8594C25.9219 58.2969 24.9375 59.5 24.9375 60.9219C24.9375 62.6719 26.3594 64.2032 28.2187 64.2032C28.7656 67.4844 31.6094 70 35 70C38.3906 70 41.2344 67.4844 41.7813 64.2032C43.5313 64.2032 45.0625 62.7813 45.0625 60.9219C45.0625 59.5 44.1875 58.2969 42.875 57.8594C43.2031 53.0469 45.3906 48.3438 48.7812 44.9532C53.1562 40.7969 55.2344 35 54.7969 29.0938ZM35 67.8125C32.8125 67.8125 30.9531 66.2813 30.4062 64.2032H39.5938C39.1563 66.2813 37.1875 67.8125 35 67.8125ZM41.7813 62.125H28.2187C27.5625 62.125 27.125 61.5782 27.125 61.0313C27.125 60.375 27.6719 59.9375 28.2187 59.9375C33.25 59.9375 36.8594 59.9375 41.7813 59.9375C42.4375 59.9375 42.875 60.4844 42.875 61.0313C42.875 61.5782 42.4375 62.125 41.7813 62.125ZM32.7031 39.2657H37.2969V57.6407H32.7031V39.2657ZM33.25 37.0782L35 33.25L36.75 37.0782H33.25ZM40.7969 57.6407H39.4844V38.1719C39.4844 38.0625 39.4844 37.8438 39.375 37.7344L35.9844 30.1875C35.7656 29.75 35.4375 29.5313 35 29.5313C34.5625 29.5313 34.2344 29.75 34.0156 30.1875L30.625 37.7344C30.5156 37.8438 30.5156 38.0625 30.5156 38.1719V57.6407H29.2031C28.875 52.2813 26.4687 47.1407 22.75 43.5313C19.25 40.1407 17.2812 35.6563 17.2812 30.7344C17.2812 20.6719 25.7031 12.4688 35.9844 13.0157C44.7344 13.4532 51.9531 20.4532 52.7188 29.2032C53.1563 34.5625 51.1875 39.7032 47.4688 43.4219C43.5313 47.1407 41.125 52.3907 40.7969 57.6407Z" fill="#208678"/>
<path d="M48.8906 29.3125H46.0469C45.0625 27.3437 43.6406 25.7031 41.8906 24.5H44.625C45.1719 24.5 45.7188 24.0625 45.7188 23.4062C45.7188 22.8594 45.2813 22.3125 44.625 22.3125H38.8281V20.6719C38.8281 20.125 38.3906 19.5781 37.7344 19.5781H32.2656C31.7188 19.5781 31.1719 20.0156 31.1719 20.6719V22.3125H25.375C24.8281 22.3125 24.2813 22.75 24.2813 23.4062C24.2813 23.9531 24.7188 24.5 25.375 24.5H28.1094C26.3594 25.7031 24.9375 27.3437 23.9531 29.3125H21.1094C20.5625 29.3125 20.0156 29.75 20.0156 30.4062V35.875C20.0156 36.4219 20.4531 36.9687 21.1094 36.9687H26.5781C27.125 36.9687 27.6719 36.5312 27.6719 35.875V30.4062C27.6719 29.8594 27.2344 29.3125 26.5781 29.3125H26.3594C27.4531 27.4531 29.2031 26.0313 31.1719 25.2656V26.1406C31.1719 26.6875 31.6094 27.2344 32.2656 27.2344H37.7344C38.2813 27.2344 38.8281 26.7969 38.8281 26.1406V25.2656C40.7969 26.0313 42.5469 27.5625 43.6406 29.3125H43.4219C42.875 29.3125 42.3281 29.75 42.3281 30.4062V35.875C42.3281 36.4219 42.7656 36.9687 43.4219 36.9687H48.8906C49.4375 36.9687 49.9844 36.5312 49.9844 35.875V30.4062C49.9844 29.75 49.4375 29.3125 48.8906 29.3125ZM25.5938 34.7812H22.2031V31.3906H24.6094H25.5938V34.7812ZM36.6406 25.0469H33.25V21.6562H36.6406V25.0469ZM47.7969 34.7812H44.4062V31.3906H45.3906H47.7969V34.7812Z" fill="#208678"/>
<path d="M65.7344 30.7344C65.7344 30.1875 65.2969 29.6406 64.6406 29.6406H58.2969C57.75 29.6406 57.2031 30.0781 57.2031 30.7344C57.2031 31.2812 57.6406 31.8281 58.2969 31.8281H64.6406C65.1875 31.8281 65.7344 31.2812 65.7344 30.7344Z" fill="#208678"/>
<path d="M54.6875 18.1564C54.1407 18.4845 54.0313 19.1408 54.25 19.5783C54.5782 20.1252 55.2344 20.2345 55.6719 20.0158L61.1407 16.8439C61.6875 16.5158 61.7969 15.8595 61.5782 15.422C61.25 14.8752 60.5938 14.7658 60.1563 14.9845L54.6875 18.1564Z" fill="#208678"/>
<path d="M48.8906 4.48425L45.7187 9.95301C45.3906 10.4999 45.6094 11.1561 46.1562 11.3749C46.7031 11.703 47.3594 11.4843 47.5781 10.9374L50.75 5.46863C51.0781 4.92175 50.8594 4.2655 50.3125 4.04675C49.7656 3.828 49.2187 4.04675 48.8906 4.48425Z" fill="#208678"/>
<path d="M34.0156 1.09375V7.4375C34.0156 7.98438 34.4531 8.53125 35.1094 8.53125C35.7656 8.53125 36.2031 8.09375 36.2031 7.4375V1.09375C36.2031 0.546875 35.7656 0 35.1094 0C34.4531 0 34.0156 0.4375 34.0156 1.09375Z" fill="#208678"/>
<path d="M19.6875 4.04703C19.1407 4.37516 19.0313 5.03141 19.25 5.46891L22.4219 10.9377C22.75 11.4845 23.4063 11.5939 23.8438 11.3752C24.3907 11.047 24.5 10.3908 24.2813 9.95329L21.1094 4.48453C20.8907 3.93766 20.2344 3.82828 19.6875 4.04703Z" fill="#208678"/>
<path d="M9.95312 14.8752C9.40624 14.6564 8.74999 14.7658 8.42187 15.3127C8.09374 15.8595 8.31249 16.5158 8.85937 16.7345L14.3281 19.9064C14.875 20.2345 15.5312 20.0158 15.75 19.4689C16.0781 18.922 15.8594 18.2658 15.3125 18.047L9.95312 14.8752Z" fill="#208678"/>
<path d="M5.35938 31.7188H11.7031C12.25 31.7188 12.7969 31.2813 12.7969 30.625C12.7969 30.0781 12.3594 29.5312 11.7031 29.5312H5.35938C4.8125 29.5312 4.26562 29.9687 4.26562 30.625C4.26562 31.1719 4.8125 31.7188 5.35938 31.7188Z" fill="#208678"/>
<path d="M9.84374 46.3752L15.3125 43.2033C15.8594 42.8752 15.9687 42.2189 15.75 41.7814C15.4219 41.2345 14.7656 41.1252 14.3281 41.3439L8.85937 44.5158C8.31249 44.8439 8.09374 45.5002 8.42187 45.9377C8.74999 46.4845 9.40624 46.7033 9.84374 46.3752Z" fill="#208678"/>
<path d="M54.5781 43.3124L60.0469 46.4842C60.5938 46.8124 61.25 46.5936 61.4688 46.0467C61.7969 45.4999 61.5781 44.8436 61.0313 44.6249L55.5625 41.453C55.0156 41.1249 54.3594 41.3436 54.1406 41.8905C53.9219 42.328 54.1406 42.9842 54.5781 43.3124Z" fill="#208678"/>
</svg>
