<svg width="35" height="35" viewBox="0 0 35 35" fill="none" xmlns="http://www.w3.org/2000/svg">
<rect x="0.5" y="0.5" width="34" height="34" stroke="#208678"/>
<path d="M18.9716 24.7637L27 17.0394L18.9716 9.31517C18.8991 9.22404 18.807 9.14888 18.7015 9.09478C18.596 9.04069 18.4796 9.00892 18.3601 9.00162C18.2407 8.99433 18.121 9.01168 18.0092 9.05251C17.8974 9.09333 17.796 9.15668 17.712 9.23825C17.628 9.31983 17.5633 9.41773 17.5222 9.52533C17.4812 9.63293 17.4647 9.74772 17.4741 9.86192C17.4834 9.97612 17.5182 10.0871 17.5763 10.1873C17.6343 10.2874 17.7141 10.3745 17.8104 10.4426L23.817 16.2398L7.83542 16.2398C7.61386 16.2398 7.40136 16.3241 7.24469 16.474C7.08802 16.624 7 16.8273 7 17.0394C7 17.2515 7.08802 17.4549 7.24469 17.6048C7.40136 17.7548 7.61385 17.839 7.83542 17.839L23.817 17.839L17.8104 23.6362C17.6542 23.7868 17.5668 23.9906 17.5676 24.2028C17.5684 24.415 17.6572 24.6182 17.8145 24.7677C17.9718 24.9172 18.1848 25.0007 18.4065 25C18.6282 24.9992 18.8405 24.9142 18.9967 24.7637L18.9716 24.7637Z" fill="#208678"/>
</svg>
