<svg width="70" height="70" viewBox="0 0 70 70" fill="none" xmlns="http://www.w3.org/2000/svg">
<g clip-path="url(#clip0_158_17)">
<mask id="path-1-outside-1_158_17" maskUnits="userSpaceOnUse" x="0.0493164" y="0.0527344" width="70" height="70" fill="black">
<rect fill="white" x="0.0493164" y="0.0527344" width="70" height="70"/>
<path fill-rule="evenodd" clip-rule="evenodd" d="M55.979 61.6783C47.3457 68.4731 35.9569 70.6684 25.4137 67.5685C14.8736 64.4687 6.48472 56.4596 2.9047 46.0733C-0.678344 35.6863 0.989393 24.21 7.37762 15.2697C7.66638 14.866 8.22917 14.7717 8.63289 15.0605C9.03951 15.3463 9.13381 15.9091 8.84504 16.3158C2.75153 24.8374 1.19242 35.7955 4.6697 45.6756C8.14669 55.5588 16.2229 63.1284 26.3098 65.9571C36.3966 68.7858 47.2302 66.5199 55.3392 59.8872L50.3064 58.8323C49.8232 58.7262 49.5138 58.2518 49.614 57.7686C49.7142 57.2824 50.1886 56.97 50.6718 57.0673L57.4312 58.4846H57.4577C57.9468 58.573 58.2739 59.0385 58.1914 59.5306L57.1041 65.7154C56.9892 66.1751 56.5384 66.4698 56.0699 66.3873C55.6014 66.3048 55.2772 65.8775 55.3244 65.4031L55.9785 61.6757L55.979 61.6783ZM44.4695 24.8017C47.587 23.9 49.9089 22.465 51.4293 20.4938C53.0205 18.2897 53.8072 15.6083 53.6628 12.8977C50.9932 13.4576 48.5917 14.9103 46.8533 17.0141C45.3329 18.9824 44.5403 21.5783 44.4695 24.8017ZM33.8561 26.2278C35.5268 28.0694 37.9519 29.3188 41.1342 29.9699C40.81 26.7611 39.8112 24.2358 38.1404 22.3942H38.1434C36.2458 20.4347 33.7352 19.1766 31.0274 18.8288C31.0981 21.5456 32.0971 24.1563 33.8561 26.2278ZM22.1347 57.2554L26.7107 54.0761L19.1822 43.2417L14.6032 46.4241L22.1347 57.2554ZM33.9768 40.6278C34.5603 40.8429 35.1702 41.0816 35.8184 41.3291C37.4126 41.9479 39.2542 42.661 41.4847 43.3387C42.4158 43.6245 43.1966 44.2669 43.6534 45.1273C43.8066 45.4161 43.9215 45.7225 43.9952 46.0407L52.4225 42.3251V42.328C52.6523 42.2249 52.891 42.1483 53.1356 42.1011C52.5964 40.4098 51.0229 39.2636 49.2461 39.2665C49.0133 39.2665 48.7806 39.2871 48.5507 39.3255C48.3238 39.3638 48.097 39.4227 47.8789 39.4993C47.4104 39.6643 46.8977 39.4168 46.7298 38.9483C46.1552 37.3424 44.6436 36.261 42.9376 36.2345C41.2315 36.2109 39.6904 37.2481 39.0716 38.8392C38.9037 39.2694 38.4352 39.5051 37.9873 39.3784C37.8429 39.346 37.6956 39.3195 37.5483 39.3018H37.5247C37.3567 39.2812 37.1917 39.2724 37.0238 39.2724C35.8599 39.2694 34.752 39.7644 33.977 40.6307L33.9768 40.6278ZM28.0395 52.7385L28.2988 52.5558L28.5875 52.6531C31.4133 53.6048 38.1199 55.8648 40.2735 55.1518C42.4952 54.4181 49.3051 51.3212 53.0261 49.6299C54.0191 49.1761 54.7882 48.8284 55.2066 48.6428V48.6457C56.4854 48.0829 57.2986 46.8071 57.2663 45.4104C57.2339 44.0136 56.3617 42.7732 55.0593 42.2722L55.0328 42.2634C54.4405 39.0988 51.4173 36.9978 48.2438 37.5459C48.1908 37.5547 48.1378 37.5636 48.0877 37.5754C47.6516 36.7533 47.0269 36.0432 46.2667 35.5069C45.4063 34.8969 44.3985 34.5345 43.3466 34.4491C43.1285 33.3588 43.0195 32.245 43.0195 31.1312C43.0225 31.0929 43.0225 31.0546 43.0195 31.0134C43.0254 30.6863 43.0431 30.371 43.0755 30.0646V30.0675C43.1757 28.9007 43.5352 27.7692 44.1362 26.7644C48.0522 25.7832 50.9605 24.0595 52.8608 21.5961C54.8262 19.0503 55.6807 15.7589 55.4301 11.722H55.4272C55.3977 11.224 54.9675 10.8439 54.4696 10.8763C54.4077 10.8793 54.3458 10.891 54.2839 10.9058C50.3296 11.7161 47.3801 13.3839 45.4267 15.9149C43.5143 18.39 42.595 21.6549 42.6657 25.7091C42.5272 25.9242 42.4005 26.1452 42.2826 26.375V26.3721C41.7581 24.4509 40.7975 22.6771 39.4774 21.1861C37.3176 18.8053 34.2207 17.3703 30.1872 16.8841C29.9308 16.8517 29.6715 16.9342 29.48 17.1081C29.2885 17.2819 29.1795 17.5294 29.1824 17.7887C29.2531 21.8344 30.3669 25.0461 32.5238 27.4297C34.5423 29.6573 37.4446 31.1218 41.231 31.8231C41.2693 32.7483 41.3754 33.6706 41.5433 34.5781C39.9109 34.9611 38.5143 36.0219 37.7099 37.4952C37.483 37.4687 37.2531 37.454 37.0233 37.454C35.939 37.454 34.8723 37.7545 33.9471 38.3232C33.2429 38.7563 32.6358 39.3309 32.1673 40.0145C28.6756 38.9803 25.9176 39.2219 21.0501 42.7637L20.5963 42.1095L20.5993 42.1066C20.0659 41.3464 19.0199 41.1578 18.2538 41.6852L13.4745 45.003H13.4774C12.7172 45.5364 12.5286 46.5824 13.056 47.3485L20.72 58.3866C21.2533 59.1468 22.2994 59.3353 23.0625 58.8079L27.8419 55.4901C28.6021 54.9538 28.7877 53.9107 28.2632 53.1446L28.001 52.7674L28.0393 52.7409L28.0395 52.7385ZM26.9698 51.2858L27.0081 51.2593C27.3323 51.0354 27.5385 50.891 27.6269 50.8262C27.8597 50.6582 28.1573 50.614 28.4284 50.7054C28.561 50.7496 28.6995 50.7967 29.1562 50.9499C31.811 51.8457 38.1168 53.9672 39.7077 53.4398C41.8528 52.7326 48.5974 49.6623 52.2838 47.9886C53.3092 47.523 54.1019 47.1576 54.479 46.9956C55.31 46.6273 55.6842 45.6549 55.3188 44.824C55.145 44.4232 54.815 44.1109 54.4084 43.9548C54.3141 43.9165 54.2139 43.8899 54.1137 43.8693C54.0842 43.8664 54.0577 43.8634 54.0312 43.8575C53.7306 43.8163 53.4242 43.8575 53.1472 43.9813L43.8833 48.0653C43.2321 49.9245 41.2314 50.9441 39.3427 50.3754L30.6883 47.7382C30.2198 47.5909 29.9546 47.0929 30.099 46.6185C30.2434 46.147 30.7384 45.8789 31.2128 46.0174L39.8672 48.6516C40.8572 48.9463 41.9003 48.3894 42.2068 47.4023C42.2186 47.3611 42.2304 47.3228 42.2392 47.2815V47.2845C42.2422 47.2491 42.251 47.2137 42.2598 47.1784C42.416 46.2472 41.8621 45.3427 40.9604 45.0627C38.6473 44.3585 36.7821 43.6366 35.1674 43.0119C30.1876 41.0848 27.745 40.139 22.0783 44.2494L26.9698 51.2858ZM12.2515 11.984L18.6632 11.9339C19.1582 11.9339 19.5619 11.5273 19.559 11.0323C19.556 10.5343 19.1524 10.1336 18.6544 10.1365L14.5911 10.166C22.7468 3.43598 33.6936 1.14955 43.8626 4.04887C54.0309 6.95129 62.1226 14.6683 65.4997 24.6895C68.8736 34.7107 67.1056 45.7517 60.7646 54.2145C60.5082 54.6152 60.6025 55.1456 60.9856 55.4314C61.3657 55.7143 61.9019 55.6554 62.2143 55.2959C68.8735 46.3677 70.7299 34.7436 67.1822 24.186C63.6345 13.6315 55.1364 5.48406 44.4378 2.38982C33.7415 -0.704121 22.2056 1.64433 13.5693 8.67779L14.2618 5.00634C14.3089 4.77062 14.2588 4.52311 14.1262 4.32569C13.9907 4.12532 13.7815 3.98683 13.5457 3.94263C13.3071 3.89843 13.0625 3.95147 12.8651 4.08996C12.6677 4.2255 12.5321 4.43766 12.4909 4.67338L11.3152 10.9172V10.923C11.2651 11.1941 11.3417 11.4741 11.5244 11.6803C11.7071 11.8866 11.9752 11.9985 12.2522 11.9838L12.2515 11.984Z"/>
</mask>
<path fill-rule="evenodd" clip-rule="evenodd" d="M55.979 61.6783C47.3457 68.4731 35.9569 70.6684 25.4137 67.5685C14.8736 64.4687 6.48472 56.4596 2.9047 46.0733C-0.678344 35.6863 0.989393 24.21 7.37762 15.2697C7.66638 14.866 8.22917 14.7717 8.63289 15.0605C9.03951 15.3463 9.13381 15.9091 8.84504 16.3158C2.75153 24.8374 1.19242 35.7955 4.6697 45.6756C8.14669 55.5588 16.2229 63.1284 26.3098 65.9571C36.3966 68.7858 47.2302 66.5199 55.3392 59.8872L50.3064 58.8323C49.8232 58.7262 49.5138 58.2518 49.614 57.7686C49.7142 57.2824 50.1886 56.97 50.6718 57.0673L57.4312 58.4846H57.4577C57.9468 58.573 58.2739 59.0385 58.1914 59.5306L57.1041 65.7154C56.9892 66.1751 56.5384 66.4698 56.0699 66.3873C55.6014 66.3048 55.2772 65.8775 55.3244 65.4031L55.9785 61.6757L55.979 61.6783ZM44.4695 24.8017C47.587 23.9 49.9089 22.465 51.4293 20.4938C53.0205 18.2897 53.8072 15.6083 53.6628 12.8977C50.9932 13.4576 48.5917 14.9103 46.8533 17.0141C45.3329 18.9824 44.5403 21.5783 44.4695 24.8017ZM33.8561 26.2278C35.5268 28.0694 37.9519 29.3188 41.1342 29.9699C40.81 26.7611 39.8112 24.2358 38.1404 22.3942H38.1434C36.2458 20.4347 33.7352 19.1766 31.0274 18.8288C31.0981 21.5456 32.0971 24.1563 33.8561 26.2278ZM22.1347 57.2554L26.7107 54.0761L19.1822 43.2417L14.6032 46.4241L22.1347 57.2554ZM33.9768 40.6278C34.5603 40.8429 35.1702 41.0816 35.8184 41.3291C37.4126 41.9479 39.2542 42.661 41.4847 43.3387C42.4158 43.6245 43.1966 44.2669 43.6534 45.1273C43.8066 45.4161 43.9215 45.7225 43.9952 46.0407L52.4225 42.3251V42.328C52.6523 42.2249 52.891 42.1483 53.1356 42.1011C52.5964 40.4098 51.0229 39.2636 49.2461 39.2665C49.0133 39.2665 48.7806 39.2871 48.5507 39.3255C48.3238 39.3638 48.097 39.4227 47.8789 39.4993C47.4104 39.6643 46.8977 39.4168 46.7298 38.9483C46.1552 37.3424 44.6436 36.261 42.9376 36.2345C41.2315 36.2109 39.6904 37.2481 39.0716 38.8392C38.9037 39.2694 38.4352 39.5051 37.9873 39.3784C37.8429 39.346 37.6956 39.3195 37.5483 39.3018H37.5247C37.3567 39.2812 37.1917 39.2724 37.0238 39.2724C35.8599 39.2694 34.752 39.7644 33.977 40.6307L33.9768 40.6278ZM28.0395 52.7385L28.2988 52.5558L28.5875 52.6531C31.4133 53.6048 38.1199 55.8648 40.2735 55.1518C42.4952 54.4181 49.3051 51.3212 53.0261 49.6299C54.0191 49.1761 54.7882 48.8284 55.2066 48.6428V48.6457C56.4854 48.0829 57.2986 46.8071 57.2663 45.4104C57.2339 44.0136 56.3617 42.7732 55.0593 42.2722L55.0328 42.2634C54.4405 39.0988 51.4173 36.9978 48.2438 37.5459C48.1908 37.5547 48.1378 37.5636 48.0877 37.5754C47.6516 36.7533 47.0269 36.0432 46.2667 35.5069C45.4063 34.8969 44.3985 34.5345 43.3466 34.4491C43.1285 33.3588 43.0195 32.245 43.0195 31.1312C43.0225 31.0929 43.0225 31.0546 43.0195 31.0134C43.0254 30.6863 43.0431 30.371 43.0755 30.0646V30.0675C43.1757 28.9007 43.5352 27.7692 44.1362 26.7644C48.0522 25.7832 50.9605 24.0595 52.8608 21.5961C54.8262 19.0503 55.6807 15.7589 55.4301 11.722H55.4272C55.3977 11.224 54.9675 10.8439 54.4696 10.8763C54.4077 10.8793 54.3458 10.891 54.2839 10.9058C50.3296 11.7161 47.3801 13.3839 45.4267 15.9149C43.5143 18.39 42.595 21.6549 42.6657 25.7091C42.5272 25.9242 42.4005 26.1452 42.2826 26.375V26.3721C41.7581 24.4509 40.7975 22.6771 39.4774 21.1861C37.3176 18.8053 34.2207 17.3703 30.1872 16.8841C29.9308 16.8517 29.6715 16.9342 29.48 17.1081C29.2885 17.2819 29.1795 17.5294 29.1824 17.7887C29.2531 21.8344 30.3669 25.0461 32.5238 27.4297C34.5423 29.6573 37.4446 31.1218 41.231 31.8231C41.2693 32.7483 41.3754 33.6706 41.5433 34.5781C39.9109 34.9611 38.5143 36.0219 37.7099 37.4952C37.483 37.4687 37.2531 37.454 37.0233 37.454C35.939 37.454 34.8723 37.7545 33.9471 38.3232C33.2429 38.7563 32.6358 39.3309 32.1673 40.0145C28.6756 38.9803 25.9176 39.2219 21.0501 42.7637L20.5963 42.1095L20.5993 42.1066C20.0659 41.3464 19.0199 41.1578 18.2538 41.6852L13.4745 45.003H13.4774C12.7172 45.5364 12.5286 46.5824 13.056 47.3485L20.72 58.3866C21.2533 59.1468 22.2994 59.3353 23.0625 58.8079L27.8419 55.4901C28.6021 54.9538 28.7877 53.9107 28.2632 53.1446L28.001 52.7674L28.0393 52.7409L28.0395 52.7385ZM26.9698 51.2858L27.0081 51.2593C27.3323 51.0354 27.5385 50.891 27.6269 50.8262C27.8597 50.6582 28.1573 50.614 28.4284 50.7054C28.561 50.7496 28.6995 50.7967 29.1562 50.9499C31.811 51.8457 38.1168 53.9672 39.7077 53.4398C41.8528 52.7326 48.5974 49.6623 52.2838 47.9886C53.3092 47.523 54.1019 47.1576 54.479 46.9956C55.31 46.6273 55.6842 45.6549 55.3188 44.824C55.145 44.4232 54.815 44.1109 54.4084 43.9548C54.3141 43.9165 54.2139 43.8899 54.1137 43.8693C54.0842 43.8664 54.0577 43.8634 54.0312 43.8575C53.7306 43.8163 53.4242 43.8575 53.1472 43.9813L43.8833 48.0653C43.2321 49.9245 41.2314 50.9441 39.3427 50.3754L30.6883 47.7382C30.2198 47.5909 29.9546 47.0929 30.099 46.6185C30.2434 46.147 30.7384 45.8789 31.2128 46.0174L39.8672 48.6516C40.8572 48.9463 41.9003 48.3894 42.2068 47.4023C42.2186 47.3611 42.2304 47.3228 42.2392 47.2815V47.2845C42.2422 47.2491 42.251 47.2137 42.2598 47.1784C42.416 46.2472 41.8621 45.3427 40.9604 45.0627C38.6473 44.3585 36.7821 43.6366 35.1674 43.0119C30.1876 41.0848 27.745 40.139 22.0783 44.2494L26.9698 51.2858ZM12.2515 11.984L18.6632 11.9339C19.1582 11.9339 19.5619 11.5273 19.559 11.0323C19.556 10.5343 19.1524 10.1336 18.6544 10.1365L14.5911 10.166C22.7468 3.43598 33.6936 1.14955 43.8626 4.04887C54.0309 6.95129 62.1226 14.6683 65.4997 24.6895C68.8736 34.7107 67.1056 45.7517 60.7646 54.2145C60.5082 54.6152 60.6025 55.1456 60.9856 55.4314C61.3657 55.7143 61.9019 55.6554 62.2143 55.2959C68.8735 46.3677 70.7299 34.7436 67.1822 24.186C63.6345 13.6315 55.1364 5.48406 44.4378 2.38982C33.7415 -0.704121 22.2056 1.64433 13.5693 8.67779L14.2618 5.00634C14.3089 4.77062 14.2588 4.52311 14.1262 4.32569C13.9907 4.12532 13.7815 3.98683 13.5457 3.94263C13.3071 3.89843 13.0625 3.95147 12.8651 4.08996C12.6677 4.2255 12.5321 4.43766 12.4909 4.67338L11.3152 10.9172V10.923C11.2651 11.1941 11.3417 11.4741 11.5244 11.6803C11.7071 11.8866 11.9752 11.9985 12.2522 11.9838L12.2515 11.984Z" fill="#208678"/>
<path fill-rule="evenodd" clip-rule="evenodd" d="M55.979 61.6783C47.3457 68.4731 35.9569 70.6684 25.4137 67.5685C14.8736 64.4687 6.48472 56.4596 2.9047 46.0733C-0.678344 35.6863 0.989393 24.21 7.37762 15.2697C7.66638 14.866 8.22917 14.7717 8.63289 15.0605C9.03951 15.3463 9.13381 15.9091 8.84504 16.3158C2.75153 24.8374 1.19242 35.7955 4.6697 45.6756C8.14669 55.5588 16.2229 63.1284 26.3098 65.9571C36.3966 68.7858 47.2302 66.5199 55.3392 59.8872L50.3064 58.8323C49.8232 58.7262 49.5138 58.2518 49.614 57.7686C49.7142 57.2824 50.1886 56.97 50.6718 57.0673L57.4312 58.4846H57.4577C57.9468 58.573 58.2739 59.0385 58.1914 59.5306L57.1041 65.7154C56.9892 66.1751 56.5384 66.4698 56.0699 66.3873C55.6014 66.3048 55.2772 65.8775 55.3244 65.4031L55.9785 61.6757L55.979 61.6783ZM44.4695 24.8017C47.587 23.9 49.9089 22.465 51.4293 20.4938C53.0205 18.2897 53.8072 15.6083 53.6628 12.8977C50.9932 13.4576 48.5917 14.9103 46.8533 17.0141C45.3329 18.9824 44.5403 21.5783 44.4695 24.8017ZM33.8561 26.2278C35.5268 28.0694 37.9519 29.3188 41.1342 29.9699C40.81 26.7611 39.8112 24.2358 38.1404 22.3942H38.1434C36.2458 20.4347 33.7352 19.1766 31.0274 18.8288C31.0981 21.5456 32.0971 24.1563 33.8561 26.2278ZM22.1347 57.2554L26.7107 54.0761L19.1822 43.2417L14.6032 46.4241L22.1347 57.2554ZM33.9768 40.6278C34.5603 40.8429 35.1702 41.0816 35.8184 41.3291C37.4126 41.9479 39.2542 42.661 41.4847 43.3387C42.4158 43.6245 43.1966 44.2669 43.6534 45.1273C43.8066 45.4161 43.9215 45.7225 43.9952 46.0407L52.4225 42.3251V42.328C52.6523 42.2249 52.891 42.1483 53.1356 42.1011C52.5964 40.4098 51.0229 39.2636 49.2461 39.2665C49.0133 39.2665 48.7806 39.2871 48.5507 39.3255C48.3238 39.3638 48.097 39.4227 47.8789 39.4993C47.4104 39.6643 46.8977 39.4168 46.7298 38.9483C46.1552 37.3424 44.6436 36.261 42.9376 36.2345C41.2315 36.2109 39.6904 37.2481 39.0716 38.8392C38.9037 39.2694 38.4352 39.5051 37.9873 39.3784C37.8429 39.346 37.6956 39.3195 37.5483 39.3018H37.5247C37.3567 39.2812 37.1917 39.2724 37.0238 39.2724C35.8599 39.2694 34.752 39.7644 33.977 40.6307L33.9768 40.6278ZM28.0395 52.7385L28.2988 52.5558L28.5875 52.6531C31.4133 53.6048 38.1199 55.8648 40.2735 55.1518C42.4952 54.4181 49.3051 51.3212 53.0261 49.6299C54.0191 49.1761 54.7882 48.8284 55.2066 48.6428V48.6457C56.4854 48.0829 57.2986 46.8071 57.2663 45.4104C57.2339 44.0136 56.3617 42.7732 55.0593 42.2722L55.0328 42.2634C54.4405 39.0988 51.4173 36.9978 48.2438 37.5459C48.1908 37.5547 48.1378 37.5636 48.0877 37.5754C47.6516 36.7533 47.0269 36.0432 46.2667 35.5069C45.4063 34.8969 44.3985 34.5345 43.3466 34.4491C43.1285 33.3588 43.0195 32.245 43.0195 31.1312C43.0225 31.0929 43.0225 31.0546 43.0195 31.0134C43.0254 30.6863 43.0431 30.371 43.0755 30.0646V30.0675C43.1757 28.9007 43.5352 27.7692 44.1362 26.7644C48.0522 25.7832 50.9605 24.0595 52.8608 21.5961C54.8262 19.0503 55.6807 15.7589 55.4301 11.722H55.4272C55.3977 11.224 54.9675 10.8439 54.4696 10.8763C54.4077 10.8793 54.3458 10.891 54.2839 10.9058C50.3296 11.7161 47.3801 13.3839 45.4267 15.9149C43.5143 18.39 42.595 21.6549 42.6657 25.7091C42.5272 25.9242 42.4005 26.1452 42.2826 26.375V26.3721C41.7581 24.4509 40.7975 22.6771 39.4774 21.1861C37.3176 18.8053 34.2207 17.3703 30.1872 16.8841C29.9308 16.8517 29.6715 16.9342 29.48 17.1081C29.2885 17.2819 29.1795 17.5294 29.1824 17.7887C29.2531 21.8344 30.3669 25.0461 32.5238 27.4297C34.5423 29.6573 37.4446 31.1218 41.231 31.8231C41.2693 32.7483 41.3754 33.6706 41.5433 34.5781C39.9109 34.9611 38.5143 36.0219 37.7099 37.4952C37.483 37.4687 37.2531 37.454 37.0233 37.454C35.939 37.454 34.8723 37.7545 33.9471 38.3232C33.2429 38.7563 32.6358 39.3309 32.1673 40.0145C28.6756 38.9803 25.9176 39.2219 21.0501 42.7637L20.5963 42.1095L20.5993 42.1066C20.0659 41.3464 19.0199 41.1578 18.2538 41.6852L13.4745 45.003H13.4774C12.7172 45.5364 12.5286 46.5824 13.056 47.3485L20.72 58.3866C21.2533 59.1468 22.2994 59.3353 23.0625 58.8079L27.8419 55.4901C28.6021 54.9538 28.7877 53.9107 28.2632 53.1446L28.001 52.7674L28.0393 52.7409L28.0395 52.7385ZM26.9698 51.2858L27.0081 51.2593C27.3323 51.0354 27.5385 50.891 27.6269 50.8262C27.8597 50.6582 28.1573 50.614 28.4284 50.7054C28.561 50.7496 28.6995 50.7967 29.1562 50.9499C31.811 51.8457 38.1168 53.9672 39.7077 53.4398C41.8528 52.7326 48.5974 49.6623 52.2838 47.9886C53.3092 47.523 54.1019 47.1576 54.479 46.9956C55.31 46.6273 55.6842 45.6549 55.3188 44.824C55.145 44.4232 54.815 44.1109 54.4084 43.9548C54.3141 43.9165 54.2139 43.8899 54.1137 43.8693C54.0842 43.8664 54.0577 43.8634 54.0312 43.8575C53.7306 43.8163 53.4242 43.8575 53.1472 43.9813L43.8833 48.0653C43.2321 49.9245 41.2314 50.9441 39.3427 50.3754L30.6883 47.7382C30.2198 47.5909 29.9546 47.0929 30.099 46.6185C30.2434 46.147 30.7384 45.8789 31.2128 46.0174L39.8672 48.6516C40.8572 48.9463 41.9003 48.3894 42.2068 47.4023C42.2186 47.3611 42.2304 47.3228 42.2392 47.2815V47.2845C42.2422 47.2491 42.251 47.2137 42.2598 47.1784C42.416 46.2472 41.8621 45.3427 40.9604 45.0627C38.6473 44.3585 36.7821 43.6366 35.1674 43.0119C30.1876 41.0848 27.745 40.139 22.0783 44.2494L26.9698 51.2858ZM12.2515 11.984L18.6632 11.9339C19.1582 11.9339 19.5619 11.5273 19.559 11.0323C19.556 10.5343 19.1524 10.1336 18.6544 10.1365L14.5911 10.166C22.7468 3.43598 33.6936 1.14955 43.8626 4.04887C54.0309 6.95129 62.1226 14.6683 65.4997 24.6895C68.8736 34.7107 67.1056 45.7517 60.7646 54.2145C60.5082 54.6152 60.6025 55.1456 60.9856 55.4314C61.3657 55.7143 61.9019 55.6554 62.2143 55.2959C68.8735 46.3677 70.7299 34.7436 67.1822 24.186C63.6345 13.6315 55.1364 5.48406 44.4378 2.38982C33.7415 -0.704121 22.2056 1.64433 13.5693 8.67779L14.2618 5.00634C14.3089 4.77062 14.2588 4.52311 14.1262 4.32569C13.9907 4.12532 13.7815 3.98683 13.5457 3.94263C13.3071 3.89843 13.0625 3.95147 12.8651 4.08996C12.6677 4.2255 12.5321 4.43766 12.4909 4.67338L11.3152 10.9172V10.923C11.2651 11.1941 11.3417 11.4741 11.5244 11.6803C11.7071 11.8866 11.9752 11.9985 12.2522 11.9838L12.2515 11.984Z" stroke="#208678" stroke-width="0.6" mask="url(#path-1-outside-1_158_17)"/>
</g>
<defs>
<clipPath id="clip0_158_17">
<rect width="70" height="70" fill="white"/>
</clipPath>
</defs>
</svg>
