<svg width="35" height="35" viewBox="0 0 35 35" fill="none" xmlns="http://www.w3.org/2000/svg">
<rect x="34.5" y="34.5" width="34" height="34" transform="rotate(-180 34.5 34.5)" stroke="black"/>
<path d="M16.0284 10.2363L8 17.9606L16.0284 25.6848C16.1009 25.776 16.193 25.8511 16.2985 25.9052C16.404 25.9593 16.5204 25.9911 16.6399 25.9984C16.7593 26.0057 16.879 25.9883 16.9908 25.9475C17.1026 25.9067 17.204 25.8433 17.288 25.7617C17.372 25.6802 17.4367 25.5823 17.4778 25.4747C17.5188 25.3671 17.5353 25.2523 17.5259 25.1381C17.5166 25.0239 17.4818 24.9129 17.4237 24.8127C17.3657 24.7126 17.2859 24.6255 17.1896 24.5574L11.183 18.7602L27.1646 18.7602C27.3861 18.7602 27.5986 18.676 27.7553 18.526C27.912 18.376 28 18.1727 28 17.9606C28 17.7485 27.912 17.5451 27.7553 17.3952C27.5986 17.2452 27.3861 17.161 27.1646 17.161L11.183 17.161L17.1896 11.3638C17.3458 11.2132 17.4332 11.0094 17.4324 10.7972C17.4316 10.585 17.3428 10.3818 17.1855 10.2323C17.0282 10.0828 16.8152 9.99926 16.5935 10C16.3718 10.0008 16.1595 10.0858 16.0033 10.2363L16.0284 10.2363Z" fill="black"/>
</svg>
